PathFileType	4	(X/Y/Z)	c:/Users/goper/Files/vsCode/490R/osim_files/C10/C10_Slow_05.trc
DataRate	CameraRate	NumFrames	NumMarkers	Units                	OrigDataRate	OrigDataStartFrame	OrigNumFrames
250.00	250.00	10	36	mm	250.0	870	2319
                Frame#	Time	LPSIS			LASIS			LTH1			LTH2			LTH3			LTH4			LLFE			LMFE			LSH1			LSH2			LSH3			LSH4			LLMAL			LMMAL			LCAL			LMTP5			LTOE			LMTP1			RPSIS			RASIS			RTH1			RTH2			RTH3			RTH4			RLFE			RMFE			RSH1			RSH2			RSH3			RSH4			RLMAL			RMMAL			RCAL			RMTP1			RTOE			RMTP5		
		X1	Y1	Z1	X2	Y2	Z2	X3	Y3	Z3	X4	Y4	Z4	X5	Y5	Z5	X6	Y6	Z6	X7	Y7	Z7	X8	Y8	Z8	X9	Y9	Z9	X10	Y10	Z10	X11	Y11	Z11	X12	Y12	Z12	X13	Y13	Z13	X14	Y14	Z14	X15	Y15	Z15	X16	Y16	Z16	X17	Y17	Z17	X18	Y18	Z18	X19	Y19	Z19	X20	Y20	Z20	X21	Y21	Z21	X22	Y22	Z22	X23	Y23	Z23	X24	Y24	Z24	X25	Y25	Z25	X26	Y26	Z26	X27	Y27	Z27	X28	Y28	Z28	X29	Y29	Z29	X30	Y30	Z30	X31	Y31	Z31	X32	Y32	Z32	X33	Y33	Z33	X34	Y34	Z34	X35	Y35	Z35	X36	Y36	Z36

870	3.47600	633.87762	1007.38800	287.02896	471.32007	1010.03680	419.34387	481.48685	772.96606	463.18268	461.20822	727.44086	457.20129	424.83536	787.78699	441.14398	418.50418	741.71753	434.78265	0.00000	0.00000	0.00000	427.07501	488.77634	253.61232	454.37531	401.29895	382.25864	450.74017	354.38336	383.34036	397.42313	401.91171	360.78687	401.30032	354.38297	356.84286	438.31586	86.36691	325.45972	0.00000	0.00000	0.00000	507.17392	38.71026	286.88611	328.59601	33.93193	329.64532	285.31497	58.94118	260.41556	323.88190	32.30176	219.24411	630.81958	1001.61591	204.41714	477.07382	981.43494	83.12453	539.01404	713.11560	49.24558	525.09906	671.45880	51.30256	494.11282	728.46100	43.36000	471.85361	683.50476	49.46984	481.00150	453.80292	95.79499	470.00858	439.61478	210.65152	583.87476	437.66794	82.19634	615.63721	407.65152	80.49986	546.76971	387.03094	91.78130	584.63818	366.66238	87.89391	821.52563	243.38890	126.90956	0.00000	0.00000	0.00000	888.80255	276.15039	164.17696	801.44312	99.65797	221.50162	784.91956	82.61697	188.01323	827.02368	104.35601	123.44422
871	3.48000	629.88428	1008.82397	287.18875	466.97769	1010.73395	418.96521	478.37375	773.36267	463.14819	458.49368	727.84851	457.18457	421.75110	787.91992	441.43408	415.64752	741.85120	435.00491	0.00000	0.00000	0.00000	427.02094	488.70187	253.71310	453.59293	401.17200	382.66431	450.06088	354.30368	383.66360	396.78391	401.80841	360.94540	400.64871	354.23694	357.05481	438.32498	86.32555	325.51755	0.00000	0.00000	0.00000	507.22226	38.72404	286.90521	328.63040	33.89688	329.67020	285.35193	58.95237	260.47540	323.81281	32.24186	219.31445	626.82837	1002.73907	204.76097	473.81235	982.11859	82.58715	532.44659	713.89630	48.96039	517.24237	672.00549	51.10981	489.14807	729.72229	42.90455	464.64005	684.60675	49.41725	471.33347	455.24866	95.69733	460.40839	441.12402	210.80798	573.95880	439.04745	82.15620	605.55200	409.04947	80.29373	536.67365	388.31537	90.81826	574.85297	368.09518	87.79726	811.41956	243.90448	126.64969	0.00000	0.00000	0.00000	878.75745	275.78641	164.92812	789.55505	99.59805	219.86902	772.68304	83.07877	186.21510	815.20660	105.09924	122.12032
872	3.48400	625.87927	1010.22943	287.34964	462.72693	1011.37152	418.64111	475.38083	773.77271	463.18524	455.94122	728.18933	457.14047	418.64661	788.05609	441.76080	412.83676	741.95569	435.25314	0.00000	0.00000	0.00000	426.95938	488.69775	253.75580	452.88846	401.08487	383.01086	449.41461	354.25070	383.89642	396.19943	401.71411	361.08618	400.02982	354.14511	357.17285	438.33588	86.30335	325.57449	0.00000	0.00000	0.00000	507.21033	38.68333	286.96365	328.68182	33.84796	329.71509	285.42313	58.93011	260.52499	323.94556	32.31854	219.23415	622.88184	1003.90948	205.05327	470.65799	982.77051	82.18625	524.98438	714.47418	48.78811	508.94550	672.25830	51.15161	484.06573	730.99176	42.47873	458.05807	685.50348	49.59520	461.32672	456.61682	95.45313	445.88849	443.80228	210.03665	564.23706	440.46268	82.17345	595.96405	410.47757	80.41903	526.46008	389.59341	89.92076	565.27478	369.74622	87.79037	801.05780	244.26143	126.57179	792.63934	231.21669	212.69426	868.59344	275.13370	165.64146	777.45892	99.36132	218.24519	760.22235	83.37680	184.43636	803.23291	105.68794	120.72115
873	3.48800	621.93530	1011.60785	287.46262	458.43021	1011.98883	418.25998	472.53952	774.18500	463.22678	453.34790	728.56958	457.14355	415.61472	788.09839	442.11978	409.43997	742.28638	435.40500	0.00000	0.00000	0.00000	427.13187	488.65140	253.86333	452.13721	400.95166	383.21832	449.16190	354.30295	384.14117	395.61700	401.61435	361.18582	399.54160	354.11237	357.39743	438.33313	86.29322	325.58118	0.00000	0.00000	0.00000	507.20197	38.68036	286.99866	328.67917	33.80871	329.79111	285.45596	58.92825	260.57870	323.90704	32.26312	219.28439	618.93439	1005.10675	205.36133	467.76498	983.40472	81.76830	518.67908	715.45276	48.49244	502.04077	673.23883	50.75542	478.87216	732.26740	42.08135	452.37045	686.13074	49.92176	452.24039	458.29898	95.35425	436.30386	445.38446	210.00157	554.60022	441.91293	82.24458	586.30011	411.88336	80.46377	516.32397	390.93878	89.26092	555.49884	371.17856	87.60196	790.56830	244.37724	126.55103	780.39966	230.85632	212.50519	858.30554	274.18646	166.26756	765.37769	98.85658	216.69824	747.68811	83.44823	182.77921	791.01959	106.12614	119.36774
874	3.49200	617.95728	1012.95007	287.58664	454.23749	1012.55219	417.94214	469.69656	774.55615	463.32236	455.71304	729.82648	454.35919	412.52484	788.18054	442.41687	407.73093	742.20288	435.56561	0.00000	0.00000	0.00000	427.00076	488.68900	253.89807	451.48419	400.93848	383.37213	448.66968	354.32239	384.24106	395.09796	401.52072	361.28641	399.06476	354.00351	357.49808	438.32114	86.29924	325.58276	0.00000	0.00000	0.00000	507.20920	38.68298	287.02402	328.67139	33.77727	329.78348	285.50537	58.93150	260.61377	324.05270	32.31565	219.20007	614.97534	1006.28564	205.65439	463.66367	984.51068	81.49718	512.06976	716.40088	48.15564	495.15283	674.50140	50.05559	473.57382	733.54706	41.71122	440.03745	690.66388	46.79831	442.91879	460.15524	95.33342	426.68909	447.05627	209.92386	545.11835	443.28281	82.41186	576.70648	413.25891	80.58707	506.46005	392.42505	89.01085	545.73993	372.64722	87.43398	780.00238	244.33121	126.54948	768.52234	230.14223	213.15514	847.97675	273.02417	166.80672	753.39606	98.10930	215.07321	735.18835	83.40666	181.07808	778.52832	106.42745	117.99368
875	3.49600	614.03076	1014.24304	287.70871	450.03787	1013.14160	417.54703	467.01169	774.92078	463.46283	450.10196	728.55298	456.88141	410.43530	788.13635	442.64243	405.15836	742.17017	435.72482	0.00000	0.00000	0.00000	426.89346	488.70697	253.98729	451.07263	400.99591	383.40884	448.32877	354.35437	384.30667	394.57599	401.45691	361.34464	398.69272	353.98654	357.55252	438.30960	86.30946	325.54364	0.00000	0.00000	0.00000	507.20462	38.68780	287.02090	328.70551	33.77995	329.81607	285.55643	58.93474	260.61758	324.00293	32.25071	219.24036	611.03137	1007.48267	205.91165	460.17529	985.25110	81.07552	505.54205	717.41425	47.86896	488.09525	675.54694	49.81934	468.17719	734.82867	41.36716	429.10727	694.11029	44.41279	433.63733	461.91129	95.19159	417.22095	448.63684	209.86690	535.72577	444.79349	82.56567	567.23212	414.60074	80.75234	497.06317	394.12589	89.34269	536.11523	374.12637	87.15007	769.35931	244.05656	126.54564	756.40454	229.38271	213.26910	837.76526	271.73944	167.18504	741.11700	97.56607	213.49086	722.22205	83.25860	179.45557	765.77588	106.52039	116.65302
876	3.50000	610.09155	1015.47766	287.77719	445.81229	1013.63708	417.24417	464.47174	775.26001	463.62085	447.01569	729.10974	457.12073	407.63519	788.10638	442.93222	402.67191	742.06812	435.92911	0.00000	0.00000	0.00000	426.10449	488.85663	254.01489	450.78241	401.08209	383.38733	448.03503	354.45175	384.24219	394.19254	401.42838	361.43637	399.90353	355.68784	363.00043	438.29907	86.33316	325.49338	0.00000	0.00000	0.00000	507.25525	38.73480	287.00253	328.85391	33.91690	329.79633	285.59805	58.91878	260.64981	324.07114	32.26443	219.19792	607.09375	1008.61377	206.13246	456.65421	985.91193	80.85361	499.29480	718.44000	47.56009	481.16779	676.63159	49.56197	462.68866	736.11035	41.04799	421.41110	695.53369	43.70084	424.47272	463.68188	95.04538	407.71970	450.37421	209.77432	526.53937	446.22565	82.81027	557.86328	415.86349	80.94243	488.15530	396.02963	90.21452	526.06085	375.31775	86.71352	758.51868	243.54414	126.54577	744.30054	228.43636	213.22826	827.11401	269.82272	167.75879	728.24500	96.49263	211.96640	708.94946	83.08775	177.85481	752.67993	106.40906	115.30638
877	3.50400	606.20496	1016.65759	287.85709	441.71216	1014.10925	416.94278	461.94427	775.57239	463.80490	444.34302	729.61249	457.02951	404.94321	788.01447	443.20813	400.35370	741.96289	436.13699	0.00000	0.00000	0.00000	427.45169	489.09802	254.58414	450.42526	401.22607	383.36331	447.89780	354.56882	384.21118	393.79254	401.41119	361.55942	399.12222	355.42047	359.57172	438.30814	86.35893	325.42575	0.00000	0.00000	0.00000	507.26889	38.75532	286.97235	328.85843	33.93278	329.78668	285.64203	58.89843	260.63525	324.02408	32.19620	219.18489	603.17816	1009.72345	206.29245	452.43402	987.19043	80.88822	493.95160	719.85968	47.15857	474.37805	677.76227	49.32045	457.11459	737.38989	40.75251	415.84717	695.82416	44.10165	415.26459	465.43842	94.90352	397.97986	452.15204	209.68069	517.49817	447.62985	83.08740	548.79095	417.21951	81.16763	479.06708	397.78372	90.72829	516.49805	376.72726	86.46426	747.53308	242.81343	126.60166	732.47638	227.59561	213.13812	816.60229	267.83575	168.13943	715.41199	95.53458	210.52963	695.36462	82.65333	176.42477	739.37207	106.28829	113.96887
878	3.50800	602.26825	1017.74725	287.91077	437.58340	1014.58032	416.62497	459.48349	775.83960	463.97397	442.99921	729.77063	457.61737	402.33087	787.80328	443.43900	398.04263	741.79480	436.40515	0.00000	0.00000	0.00000	424.31641	489.28958	253.65778	448.66782	398.89590	376.26279	447.75546	354.70752	384.12448	393.48865	401.42383	361.75293	400.55963	356.18915	361.35873	438.29382	86.40836	325.35074	0.00000	0.00000	0.00000	506.85883	38.57588	286.39417	328.70135	33.83121	329.83975	285.70084	58.86994	260.62976	324.04083	32.10085	219.15306	599.27167	1010.79443	206.45172	451.69006	986.97858	81.26090	487.90240	720.97186	46.83205	468.16220	678.94904	49.33316	451.46152	738.66522	40.47953	411.31369	695.87128	45.05440	406.25751	467.19598	94.77024	388.58438	453.95316	209.60632	509.10483	449.30545	83.56519	539.43268	418.15768	81.56339	469.42645	399.19934	90.21862	506.96185	378.06857	86.18784	736.81726	242.18137	126.44083	720.66815	226.54129	212.95145	805.99304	265.48245	168.50142	702.20667	94.42920	209.05751	681.63190	82.27094	174.92287	725.89532	105.79532	112.71650
879	3.51200	598.18896	1018.77051	288.29782	433.49139	1014.98907	416.40045	457.06406	776.08728	464.11105	440.70853	729.88831	457.75497	399.76025	787.67273	443.69440	395.70889	741.65088	436.64758	0.00000	0.00000	0.00000	422.56396	489.35950	253.47363	450.06635	401.62555	383.24106	447.73242	354.88141	383.99802	393.18637	401.40491	361.93216	400.46695	356.14386	361.46600	438.26837	86.42873	325.22723	0.00000	0.00000	0.00000	507.29095	38.58300	286.74997	328.66403	33.86171	329.83594	285.72113	58.84367	260.61768	323.99945	32.04999	219.10201	595.32648	1011.80627	206.57718	447.96991	987.74396	81.21945	481.85077	722.08594	46.49734	461.80276	680.28522	49.33105	445.73584	739.93427	40.22787	406.70901	696.56500	45.99826	397.25735	468.98987	94.09165	379.16800	455.76797	209.51031	498.79300	448.99786	84.58707	530.95331	419.49973	82.04919	460.04553	400.75177	89.81105	497.45001	379.38504	85.89097	725.23401	240.74088	126.64931	708.82489	225.31276	212.64856	795.37036	262.86707	168.83290	688.85217	93.21620	207.55960	667.56543	81.79174	173.44937	712.03699	105.40829	111.40311
